<svg id="ConsentFormsAI" xmlns="http://www.w3.org/2000/svg" width="234.327" height="27.6" viewBox="0 0 234.327 27.6">
  <g id="Component_293_1" transform="translate(-10.173 -2.1)">
    <path id="Path_36580" d="M11.6,18.8a2.92,2.92,0,0,1-.9-.2h-.2a.382.382,0,0,1-.3-.5.319.319,0,0,1,.3-.3h.3c.3,0,.6-.2.9-.2a1.445,1.445,0,0,0,.7-.2A13.482,13.482,0,0,0,20.8,9c0-.2.2-.5.2-.7a2.92,2.92,0,0,1,.2-.9V7.3h0V7.1h0c0-.3.3-.4.5-.4A.319.319,0,0,1,22,7h0v.2h0v.2a2.92,2.92,0,0,0,.2.9,1.854,1.854,0,0,0,.2.7,13.482,13.482,0,0,0,8.4,8.4c.2,0,.5.2.7.2a2.92,2.92,0,0,1,.9.2h.1a.382.382,0,0,1,.3.5.319.319,0,0,1-.3.3h-.2c-.3,0-.6.2-.9.2a1.445,1.445,0,0,0-.7.2,13.482,13.482,0,0,0-8.4,8.4c0,.2-.2.5-.2.7a2.92,2.92,0,0,1-.2.9v.1h0v.2h0c0,.3-.3.4-.5.4a.319.319,0,0,1-.3-.3h0v-.2h0V29a2.92,2.92,0,0,0-.2-.9,1.854,1.854,0,0,0-.2-.7A13.482,13.482,0,0,0,12.3,19a2.353,2.353,0,0,1-.8-.2Z" fill="#4e81ed" fill-rule="evenodd"/>
    <path id="Path_36611" d="M26.7,7.2a5.218,5.218,0,0,1,2.7,3.6h0c0,.2.1.2.2.2a.1.1,0,0,0,.1-.1h0a5.227,5.227,0,0,1,4.1-4.2h0s.2-.1.1-.2a.1.1,0,0,0-.1-.1h0a5.112,5.112,0,0,1-4.1-4.1h0c0-.2-.1-.2-.2-.2a.1.1,0,0,0-.1.1h0a5.227,5.227,0,0,1-4.1,4.2s1,.6,1.4.9Z" fill="#222b93" fill-rule="evenodd"/>
  </g>
  <g id="Group_172284" data-name="Group 172284" transform="translate(-10.173 -2.1)">
    <path id="Path_36686" data-name="Path 36686" d="M58.8,21.4a3.339,3.339,0,0,1-1.1,1.3,2.981,2.981,0,0,1-2,.5,3.312,3.312,0,0,1-1.9-.5,4.036,4.036,0,0,1-1.3-1.3,11.919,11.919,0,0,1-.8-2,9.862,9.862,0,0,1-.3-2.4,6.606,6.606,0,0,1,.3-2.4,9.261,9.261,0,0,1,.8-2,3.25,3.25,0,0,1,1.3-1.3,3.453,3.453,0,0,1,1.8-.5,3.2,3.2,0,0,1,1.5.2,2.034,2.034,0,0,1,.9.6c.2.3.5.6.6.8l.4.6,2-1.1-.4-.6a6.42,6.42,0,0,0-1-1.3A5,5,0,0,0,58,8.9a5.464,5.464,0,0,0-2.4-.4,6.885,6.885,0,0,0-2.9.7,5.478,5.478,0,0,0-2,2,11.065,11.065,0,0,0-1.2,2.7,15.458,15.458,0,0,0-.4,3.1,14.534,14.534,0,0,0,.3,3,8.083,8.083,0,0,0,1.1,2.7,5.775,5.775,0,0,0,2.1,2,6.04,6.04,0,0,0,3,.7,5.356,5.356,0,0,0,2.4-.5,5.229,5.229,0,0,0,1.7-1.2,6.527,6.527,0,0,0,1-1.5l.3-.7-2.1-.8-.3.6Z"/>
    <path id="Path_36687" data-name="Path 36687" d="M76.7,11.4a6.031,6.031,0,0,0-2.1-2.1,6.406,6.406,0,0,0-6.2,0,7,7,0,0,0-2.1,2.1,8.083,8.083,0,0,0-1.1,2.7,14.279,14.279,0,0,0-.3,2.9,13.575,13.575,0,0,0,.3,2.9,8.083,8.083,0,0,0,1.1,2.7,6.031,6.031,0,0,0,2.1,2.1,6.406,6.406,0,0,0,6.2,0,7,7,0,0,0,2.1-2.1,8.083,8.083,0,0,0,1.1-2.7,14.279,14.279,0,0,0,.3-2.9,13.575,13.575,0,0,0-.3-2.9,8.083,8.083,0,0,0-1.1-2.7ZM71.5,23.2a4.228,4.228,0,0,1-2-.5,4.036,4.036,0,0,1-1.3-1.3,11.919,11.919,0,0,1-.8-2,9.737,9.737,0,0,1-.2-2.4,8.954,8.954,0,0,1,.2-2.3,6.982,6.982,0,0,1,.8-2,4.357,4.357,0,0,1,1.3-1.4,3.83,3.83,0,0,1,1.9-.5,4.228,4.228,0,0,1,2,.5,4.036,4.036,0,0,1,1.3,1.3,11.919,11.919,0,0,1,.8,2,9.737,9.737,0,0,1,.2,2.4,8.954,8.954,0,0,1-.2,2.3,6.982,6.982,0,0,1-.8,2,4.357,4.357,0,0,1-1.3,1.4A3.83,3.83,0,0,1,71.5,23.2Z"/>
    <path id="Path_36688" data-name="Path 36688" d="M92.2,20.4,85.1,8.9,85,8.8H83.1V25.2h2.3V13.6l7.1,11.5.1.1h1.9V8.8H92.2Z"/>
    <path id="Path_36689" data-name="Path 36689" d="M108.3,17.1h0a5.826,5.826,0,0,0-1.5-1.1,10.092,10.092,0,0,0-1.5-.7,8.865,8.865,0,0,1-1.7-.8,2.012,2.012,0,0,1-1.1-.9,2.1,2.1,0,0,1-.4-1.1,1.76,1.76,0,0,1,.6-1.3,2.969,2.969,0,0,1,1.8-.5,2.364,2.364,0,0,1,1.6.4,2.445,2.445,0,0,1,.9,1.1l.3.6,2.2-.7-.2-.7a3.36,3.36,0,0,0-1-1.6,4.355,4.355,0,0,0-1.6-1,6.465,6.465,0,0,0-2-.4,7.418,7.418,0,0,0-2.5.5,3.53,3.53,0,0,0-1.7,1.5,3.7,3.7,0,0,0-.6,2.1,4.228,4.228,0,0,0,.5,2,5.263,5.263,0,0,0,1.2,1.4,3.766,3.766,0,0,0,1.5.9c.5.2,1,.5,1.5.7a7.973,7.973,0,0,1,1.6.8,3.838,3.838,0,0,1,1.1,1.1,2.01,2.01,0,0,1,.4,1.3,2.139,2.139,0,0,1-.7,1.8,3.281,3.281,0,0,1-2.1.6,2.707,2.707,0,0,1-1.9-.6,3.435,3.435,0,0,1-1.3-1.6l-.3-.6-2.2.7.3.8a9.392,9.392,0,0,0,1.2,1.8,5.936,5.936,0,0,0,1.8,1.3,6.042,6.042,0,0,0,2.4.5,7.512,7.512,0,0,0,2.6-.5,4.944,4.944,0,0,0,1.9-1.6,4.3,4.3,0,0,0,.7-2.5,4.378,4.378,0,0,0-.4-2.1,5.826,5.826,0,0,0-1.1-1.5Z"/>
    <path id="Path_36690" data-name="Path 36690" d="M117.2,17.8h4.7V15.6h-4.7V11h7V8.8h-9.3V25.2h9.8V23h-7.5Z"/>
    <path id="Path_36691" data-name="Path 36691" d="M138.7,20.4,131.6,8.8h-1.9V25.2h2.2V13.6l7.2,11.6H141V8.8h-2.3Z"/>
    <path id="Path_36692" data-name="Path 36692" d="M145.7,11.1h4.1V25.2h2.3V11.1h4.1V8.8H145.7Z"/>
    <path id="Path_36693" data-name="Path 36693" d="M167,25.2h2.3V17.8h4.9V15.6h-4.9V11h7.2V8.8H167Z"/>
    <path id="Path_36694" data-name="Path 36694" d="M192.4,11.4a6.031,6.031,0,0,0-2.1-2.1,6.406,6.406,0,0,0-6.2,0,7,7,0,0,0-2.1,2.1,8.084,8.084,0,0,0-1.1,2.7,14.279,14.279,0,0,0-.3,2.9,13.576,13.576,0,0,0,.3,2.9,8.083,8.083,0,0,0,1.1,2.7,6.031,6.031,0,0,0,2.1,2.1,6.207,6.207,0,0,0,3.1.8,5.938,5.938,0,0,0,3.1-.8,7,7,0,0,0,2.1-2.1,8.084,8.084,0,0,0,1.1-2.7,14.279,14.279,0,0,0,.3-2.9,13.576,13.576,0,0,0-.3-2.9,8.083,8.083,0,0,0-1.1-2.7Zm-.9,5.6a9.345,9.345,0,0,1-.2,2.3,6.982,6.982,0,0,1-.8,2,4.357,4.357,0,0,1-1.3,1.4,3.83,3.83,0,0,1-1.9.5,4.552,4.552,0,0,1-2-.5,4.036,4.036,0,0,1-1.3-1.3,11.918,11.918,0,0,1-.8-2A9.737,9.737,0,0,1,183,17a8.954,8.954,0,0,1,.2-2.3,6.982,6.982,0,0,1,.8-2,4.357,4.357,0,0,1,1.3-1.4,3.83,3.83,0,0,1,1.9-.5,4.228,4.228,0,0,1,2,.5,4.036,4.036,0,0,1,1.3,1.3,11.918,11.918,0,0,1,.8,2A9.737,9.737,0,0,1,191.5,17Z"/>
    <path id="Path_36695" data-name="Path 36695" d="M209.3,15.6a5.45,5.45,0,0,0,.5-2.2,5.45,5.45,0,0,0-.5-2.2,4.552,4.552,0,0,0-1.6-1.8,5.129,5.129,0,0,0-3-.7h-5.9V25.2h2.3v-7h2.7l3.3,6.9h0a20.9,20.9,0,0,0,2.5.1L206.1,18a3.479,3.479,0,0,0,1.5-.7,4.281,4.281,0,0,0,1.5-1.8Zm-1.8-2.2a2.231,2.231,0,0,1-.3,1.3,1.765,1.765,0,0,1-.8.9,3.867,3.867,0,0,1-1.7.4h-3.6V11h3.6a2.5,2.5,0,0,1,1.7.4,3.24,3.24,0,0,1,.8.9,2.537,2.537,0,0,1,.2,1.2Z"/>
    <path id="Path_36696" data-name="Path 36696" d="M221.8,20.8,216.9,8.9l-.1-.1h-1.9V25.2h2.3V15.5l4.6,11.2,4.7-11.2v9.7h2.2V8.8h-1.9Z"/>
    <path id="Path_36697" data-name="Path 36697" d="M243.8,18.7a6.117,6.117,0,0,0-2.6-2.6,10.092,10.092,0,0,0-1.5-.7,8.865,8.865,0,0,1-1.7-.8,2.012,2.012,0,0,1-1.1-.9,2.1,2.1,0,0,1-.4-1.1,1.76,1.76,0,0,1,.6-1.3,2.969,2.969,0,0,1,1.8-.5,2.364,2.364,0,0,1,1.6.4,2.445,2.445,0,0,1,.9,1.1l.3.6,2.2-.7-.2-.7a3.36,3.36,0,0,0-1-1.6,4.355,4.355,0,0,0-1.6-1,6.465,6.465,0,0,0-2-.4,7.418,7.418,0,0,0-2.5.5,3.53,3.53,0,0,0-1.7,1.5,3.7,3.7,0,0,0-.6,2.1,4.228,4.228,0,0,0,.5,2A5.263,5.263,0,0,0,236,16a3.765,3.765,0,0,0,1.5.9c.5.2,1,.5,1.5.7a7.973,7.973,0,0,1,1.6.8,3.838,3.838,0,0,1,1.1,1.1,2.01,2.01,0,0,1,.4,1.3,2.139,2.139,0,0,1-.7,1.8,3.281,3.281,0,0,1-2.1.6,2.707,2.707,0,0,1-1.9-.6,4.013,4.013,0,0,1-1.3-1.6l-.3-.6-2.2.7.3.8a9.392,9.392,0,0,0,1.2,1.8,5.936,5.936,0,0,0,1.8,1.3,6.042,6.042,0,0,0,2.4.5,7.512,7.512,0,0,0,2.6-.5,4.944,4.944,0,0,0,1.9-1.6,4.3,4.3,0,0,0,.7-2.5,4.378,4.378,0,0,0-.4-2.1Z"/>
  </g>
</svg>
